<svg  viewBox="0 0 101 222" fill="none" xmlns="http://www.w3.org/2000/svg">
<path d="M15.6156 207.26C-3.87414 187.77 -3.87414 156.062 15.6156 136.572C35.1053 117.082 66.814 117.082 86.3037 136.572C105.793 156.062 105.793 187.77 86.3037 207.26C66.814 226.75 35.1053 226.75 15.6156 207.26ZM83.9481 138.928C65.7571 120.736 36.1623 120.736 17.976 138.928C-0.215087 157.119 -0.215087 186.713 17.976 204.9C36.167 223.091 65.7618 223.091 83.9481 204.9C102.139 186.709 102.139 157.114 83.9481 138.928Z" fill="white"/>
<path d="M84.4912 161.313C84.3159 161.138 84.1737 160.915 84.0931 160.669C82.3631 155.55 79.5382 151.014 75.699 147.175C71.8646 143.34 67.324 140.515 62.2051 138.781C61.5273 138.548 61.0723 137.918 61.0723 137.202V125.054C61.0723 124.543 61.3092 124.059 61.7121 123.742C62.1197 123.424 62.6458 123.315 63.1388 123.438C71.8883 125.628 79.8984 130.169 86.297 136.572C92.6957 142.975 97.2363 150.981 99.4261 159.73C99.5493 160.228 99.4356 160.754 99.1227 161.162C98.8052 161.569 98.3217 161.801 97.8098 161.801H85.6619C85.2069 161.801 84.7898 161.617 84.4817 161.309L84.4912 161.313ZM78.0547 144.819C81.9697 148.734 84.9225 153.322 86.8469 158.469H95.6343C93.4256 151.113 89.4111 144.392 83.9462 138.928C78.4813 133.463 71.7604 129.448 64.409 127.244V136.032C69.5564 137.951 74.1444 140.904 78.0594 144.824L78.0547 144.819Z" fill="white"/>
<path d="M15.6142 207.26C9.21554 200.861 4.67014 192.851 2.48039 184.102C2.35716 183.604 2.47092 183.078 2.78374 182.675C3.1013 182.267 3.58473 182.035 4.09662 182.035H16.2445C16.9602 182.035 17.5953 182.49 17.8229 183.168C19.5529 188.287 22.3777 192.823 26.2169 196.662C30.0513 200.496 34.592 203.321 39.7109 205.056C40.3887 205.283 40.8436 205.919 40.8436 206.634V218.782C40.8436 219.294 40.6067 219.778 40.2038 220.095C39.7962 220.413 39.2701 220.522 38.7724 220.398C30.0229 218.209 22.0175 213.668 15.6142 207.269V207.26ZM6.28165 185.362C8.49036 192.718 12.5049 199.439 17.9698 204.904C23.4347 210.369 30.1556 214.384 37.5117 216.592V207.805C32.3643 205.885 27.7763 202.933 23.8613 199.018C19.9462 195.103 16.9934 190.515 15.0691 185.367H6.28165V185.362Z" fill="white"/>
<path d="M61.5605 219.953C61.2476 219.64 61.0723 219.218 61.0723 218.773V206.625C61.0723 205.909 61.5273 205.274 62.2051 205.047C67.324 203.317 71.8599 200.492 75.699 196.653C79.5382 192.813 82.3583 188.278 84.0931 183.159C84.3206 182.481 84.9557 182.026 85.6714 182.026H97.8193C98.3312 182.026 98.8147 182.263 99.1322 182.666C99.4498 183.069 99.5588 183.599 99.4356 184.092C97.2411 192.842 92.7004 200.847 86.3018 207.251C79.9032 213.654 71.893 218.195 63.1435 220.384C62.6458 220.508 62.1197 220.394 61.7169 220.081C61.6647 220.034 61.6126 219.991 61.5652 219.944L61.5605 219.953ZM64.4043 207.8V216.588C71.7603 214.379 78.4813 210.365 83.9461 204.9C89.411 199.435 93.4209 192.714 95.6343 185.358H86.8469C84.9273 190.505 81.9744 195.089 78.0547 199.008C74.1396 202.923 69.5516 205.881 64.4043 207.8Z" fill="white"/>
<path d="M2.91718 161.313C2.86978 161.266 2.8224 161.214 2.78448 161.162C2.46692 160.759 2.3579 160.228 2.48113 159.73C4.67088 150.981 9.21154 142.971 15.6149 136.572C22.0183 130.173 30.0236 125.628 38.7731 123.438C39.2708 123.315 39.7969 123.429 40.1998 123.741C40.6027 124.059 40.8397 124.543 40.8397 125.054V137.202C40.8397 137.918 40.3847 138.553 39.7069 138.781C34.588 140.511 30.0521 143.335 26.2129 147.175C22.3784 151.009 19.5536 155.55 17.8189 160.669C17.5913 161.346 16.9562 161.801 16.2406 161.801H4.09265C3.64712 161.801 3.22052 161.626 2.91243 161.318L2.91718 161.313ZM37.5077 127.244C30.1516 129.453 23.4307 133.467 17.9658 138.932C12.5009 144.397 8.4911 151.118 6.27765 158.474H15.0651C16.9847 153.327 19.9375 148.744 23.8573 144.824C27.7723 140.909 32.3603 137.956 37.5077 136.032V127.244Z" fill="white"/>
<path d="M78.0588 144.819C63.1192 129.879 38.8045 129.875 23.8649 144.819C8.92059 159.763 8.92533 184.073 23.8649 199.013C38.8045 213.953 63.1145 213.957 78.0588 199.013C93.0032 184.069 92.9984 159.759 78.0588 144.819Z" fill="white"/>
<path d="M64.7777 185.594L37.2501 185.776C36.0905 185.784 35.1566 186.73 35.1643 187.89L35.1708 188.871C35.1785 190.03 36.1248 190.964 37.2844 190.957L64.8121 190.774C65.9717 190.766 66.9055 189.82 66.8978 188.66L66.8913 187.679C66.8836 186.52 65.9373 185.586 64.7777 185.594Z" fill="#110A1D"/>
<path d="M41.0006 168.978C40.702 168.978 40.3987 168.911 40.1238 168.778L37.9767 167.74C37.043 167.285 36.6164 166.181 37.005 165.219L37.9909 162.764C38.2943 162.015 39.0099 161.527 39.8157 161.522C40.1617 161.522 40.5029 161.607 40.8063 161.783L43.3657 163.242C43.8445 163.513 44.1905 163.982 44.3137 164.522C44.4369 165.063 44.3279 165.631 44.0151 166.086L42.6121 168.12C42.2472 168.651 41.6405 168.973 40.9959 168.973L41.0006 168.978Z" fill="#110A1D"/>
<path d="M60.8194 168.845C60.1748 168.845 59.5634 168.537 59.1937 168.011L57.8049 166.053C57.4826 165.603 57.3689 165.034 57.4827 164.494C57.5964 163.953 57.9377 163.479 58.4164 163.2L61.0564 161.65C61.355 161.475 61.6963 161.38 62.0423 161.375C62.848 161.37 63.5732 161.849 63.886 162.593L64.8814 164.977C65.2795 165.935 64.8671 167.048 63.9429 167.513L61.6963 168.636C61.4261 168.769 61.1227 168.845 60.8241 168.845H60.8194Z" fill="#110A1D"/>
<path d="M38.8381 183.936C37.6294 183.945 36.544 183.187 36.1317 182.05L31.5389 169.409C31.2451 169.551 30.9322 169.66 30.6147 169.74C30.2402 169.835 29.861 169.883 29.4771 169.883C29.2543 169.883 29.0363 169.873 28.823 169.845C26.4295 169.541 24.6142 167.489 24.6 165.072C24.581 162.399 26.7423 160.209 29.4155 160.19C32.0887 160.171 34.2785 162.332 34.2927 165.006C34.2927 165.622 34.1884 166.214 33.9704 166.769C33.8519 167.072 33.705 167.361 33.5343 167.636L42.2696 171.864L48.9527 162.181C48.673 162.062 48.4028 161.915 48.1469 161.74C47.6634 161.413 47.2416 161.005 46.9003 160.526C46.3221 159.711 46.0092 158.749 46.0045 157.754C45.9855 155.081 48.1469 152.891 50.8201 152.872C50.9386 152.872 51.0618 152.872 51.1803 152.881C53.5739 153.042 55.5077 154.962 55.683 157.356C55.7636 158.488 55.465 159.574 54.8204 160.498C54.4792 160.981 54.062 161.394 53.5833 161.721C53.3321 161.896 53.062 162.043 52.7823 162.162L59.5838 171.745L68.1769 167.446C68.0158 167.138 67.8878 166.816 67.793 166.48C67.6793 166.072 67.6177 165.645 67.6177 165.214C67.6177 165.02 67.6271 164.825 67.6461 164.636C67.921 162.2 69.978 160.351 72.4284 160.337C75.1016 160.318 77.2914 162.479 77.3056 165.152C77.3246 167.702 75.3434 169.845 72.7981 170.02L72.4948 170.03C72.0019 170.03 71.5185 169.963 71.0492 169.821C70.7459 169.726 70.452 169.608 70.1771 169.456L65.8639 181.85C65.4705 182.993 64.3899 183.761 63.1812 183.77L38.8381 183.931V183.936Z" fill="#110A1D"/>
<path d="M100.539 51.0404V170.636C100.539 171.624 99.7373 172.415 98.7588 172.415C97.7804 172.415 96.979 171.614 96.979 170.636V51.0404C96.979 50.0515 97.7804 49.2605 98.7588 49.2605C99.7373 49.2605 100.539 50.062 100.539 51.0404Z" fill="white"/>
<path d="M100.5 51C100.5 51.9888 100.289 51.3353 99.3104 51.3353C98.332 51.3353 97 51.4784 97 50.4999C97 25.1445 76.9006 3.57007 51.5452 3.57007C26.1898 3.57007 5.00002 25.1445 5.00002 50.4999C5.00002 51.4888 4.75836 51.3353 3.77995 51.3353C2.80154 51.3353 1.50002 51.9784 1.50002 50.9999C1.50002 23.6773 24.2329 -8.7738e-05 51.5556 -8.7738e-05C78.8783 -8.7738e-05 100.5 22.6773 100.5 50V51Z" fill="white"/>
<path d="M4.99577 50.7801V170.375C4.99577 171.364 4.19435 172.155 3.21593 172.155C2.23752 172.155 1.43604 171.354 1.43604 170.375V50.7801C1.43604 49.7913 2.23752 49.0002 3.21593 49.0002C4.19435 49.0002 4.99577 49.8017 4.99577 50.7801Z" fill="white"/>
</svg>
