<svg   viewBox="0 0 100 100" fill="none" xmlns="http://www.w3.org/2000/svg">
<path d="M49.9826 99.1527C37.2841 99.1527 24.5959 94.3231 14.9263 84.6535C-4.40252 65.3246 -4.40252 33.8801 14.9263 14.5513C24.2941 5.18354 36.7428 0.03125 49.9826 0.03125C63.2224 0.03125 75.6711 5.18354 85.0389 14.5513C104.368 33.8801 104.368 65.3246 85.0389 84.6535C75.3797 94.3127 62.6811 99.1527 49.9826 99.1527ZM17.5285 82.0513C35.4209 99.9437 64.5339 99.9437 82.4263 82.0513C100.319 64.1588 100.319 35.0459 82.4263 17.1535C73.7559 8.48308 62.2335 3.71595 49.9722 3.71595C37.7108 3.71595 26.1884 8.49348 17.5181 17.1535C-0.374391 35.0459 -0.374391 64.1588 17.5181 82.0513H17.5285Z" fill="#9DADF2"/>
<path d="M49.3269 68.1557C49.5039 68.5824 49.9202 68.8323 50.3574 68.8323C50.5031 68.8323 50.6489 68.801 50.7946 68.749C54.2919 67.2814 57.4769 65.0123 59.9958 62.1811C60.4017 61.7232 60.3601 61.0154 59.9021 60.6094C59.4441 60.2035 58.7364 60.2452 58.3304 60.7031C56.0301 63.2949 53.1261 65.3661 49.9306 66.6985C49.3686 66.9378 49.0979 67.5936 49.3373 68.1557H49.3269Z" fill="#9DADF2"/>
<path d="M68.8729 32.4643L50.3872 25.0742C50.1166 24.9701 49.8251 24.9701 49.5545 25.0742L31.0688 32.4643C30.642 32.6309 30.3713 33.0368 30.3713 33.4948V46.7345C30.3922 58.9543 38.1154 69.9978 49.5857 74.2029C49.7106 74.2446 49.8355 74.2654 49.9708 74.2654C50.1061 74.2654 50.231 74.2446 50.3559 74.2029C61.8263 69.9874 69.5495 58.9543 69.5703 46.7345V33.4948C69.5703 33.0368 69.2997 32.6309 68.8729 32.4643ZM67.3428 46.7345C67.322 57.8509 60.3482 67.9785 49.9812 71.965C39.6142 67.9785 32.63 57.8509 32.6092 46.7345V34.2546L49.9812 27.312L67.3428 34.2546V46.7345Z" fill="#9DADF2"/>
<path d="M42.2585 34.2026C41.9878 34.0881 41.686 34.0881 41.4049 34.2026L37.0021 35.9616C36.5754 36.1282 36.3047 36.5341 36.3047 36.9921V41.6864C36.3047 42.3005 36.8043 42.8001 37.4184 42.8001C38.0325 42.8001 38.5322 42.3005 38.5322 41.6864V37.7519L42.2272 36.2739C42.5082 36.1594 42.7164 35.9512 42.8413 35.6702C42.9558 35.3995 42.9558 35.0977 42.8413 34.8166C42.7268 34.5356 42.5187 34.3275 42.248 34.2026H42.2585Z" fill="#9DADF2"/>
<path d="M78.1259 21.4521C70.6109 13.9267 60.6082 9.79443 49.9706 9.79443C39.333 9.79443 29.3407 13.9371 21.8152 21.4521C6.29596 36.9714 6.29596 62.2331 21.8152 77.7628C29.5801 85.5276 39.7701 89.3997 49.9706 89.3997C60.171 89.3997 70.3611 85.5172 78.1259 77.7628C93.6452 62.2435 93.6452 36.9818 78.1259 21.4521ZM72.6198 46.7347C72.651 60.8592 63.6267 73.2142 50.1684 77.4922C50.0434 77.5338 49.9081 77.5338 49.7728 77.4922C36.3144 73.2142 27.2902 60.8592 27.3214 46.7347V31.1113C27.3214 30.8511 27.4775 30.6117 27.7273 30.5076L49.7312 21.7123C49.8041 21.6811 49.8873 21.6707 49.9706 21.6707C50.0539 21.6707 50.1371 21.6811 50.21 21.7123L72.2138 30.5181C72.4636 30.6117 72.6198 30.8511 72.6198 31.1217V46.7451V46.7347Z" fill="#9DADF2"/>
</svg>
